<mxfile host="65bd71144e" scale="1" border="40">
    <diagram id="ZGiubuzTnFsMa45nnlA5" name="Page-1">
        <mxGraphModel dx="2049" dy="1547" grid="0" gridSize="10" guides="1" tooltips="1" connect="1" arrows="1" fold="1" page="1" pageScale="1" pageWidth="1600" pageHeight="900" background="#4D4D4D" math="0" shadow="0">
            <root>
                <mxCell id="0"/>
                <mxCell id="1" parent="0"/>
                <mxCell id="186" value="" style="group" vertex="1" connectable="0" parent="1">
                    <mxGeometry x="160" y="89.99999999999994" width="1280" height="720" as="geometry"/>
                </mxCell>
                <mxCell id="29" value="APIs" style="ellipse;shape=cloud;whiteSpace=wrap;html=1;fontSize=16;fillColor=#bac8d3;strokeColor=#23445d;fontFamily=Roboto;fontSource=https%3A%2F%2Ffonts.googleapis.com%2Fcss%3Ffamily%3DRoboto;" parent="186" vertex="1">
                    <mxGeometry y="200.00000000000006" width="120" height="80" as="geometry"/>
                </mxCell>
                <mxCell id="35" value="emails" style="ellipse;shape=cloud;whiteSpace=wrap;html=1;fontSize=16;fillColor=#bac8d3;strokeColor=#23445d;fontFamily=Roboto;fontSource=https%3A%2F%2Ffonts.googleapis.com%2Fcss%3Ffamily%3DRoboto;" parent="186" vertex="1">
                    <mxGeometry y="436.68000000000006" width="120" height="80" as="geometry"/>
                </mxCell>
                <mxCell id="36" value="hyperlink" style="ellipse;shape=cloud;whiteSpace=wrap;html=1;fontSize=16;fillColor=#bac8d3;strokeColor=#23445d;fontFamily=Roboto;fontSource=https%3A%2F%2Ffonts.googleapis.com%2Fcss%3Ffamily%3DRoboto;" parent="186" vertex="1">
                    <mxGeometry y="520.0000000000002" width="120" height="80" as="geometry"/>
                </mxCell>
                <mxCell id="37" value="S3" style="ellipse;shape=cloud;whiteSpace=wrap;html=1;fontSize=16;fillColor=#bac8d3;strokeColor=#23445d;fontFamily=Roboto;fontSource=https%3A%2F%2Ffonts.googleapis.com%2Fcss%3Ffamily%3DRoboto;" parent="186" vertex="1">
                    <mxGeometry y="280.00000000000006" width="120" height="80" as="geometry"/>
                </mxCell>
                <mxCell id="54" value="manually&lt;br&gt;save" style="shape=step;perimeter=stepPerimeter;whiteSpace=wrap;html=1;fixedSize=1;fontSize=16;aspect=fixed;fillColor=#CCCCCC;strokeColor=#23445d;fontFamily=Roboto;fontSource=https%3A%2F%2Ffonts.googleapis.com%2Fcss%3Ffamily%3DRoboto;" parent="186" vertex="1">
                    <mxGeometry x="100" y="640" width="120" height="80" as="geometry"/>
                </mxCell>
                <mxCell id="56" value="extract" style="shape=step;perimeter=stepPerimeter;whiteSpace=wrap;html=1;fixedSize=1;fontSize=16;aspect=fixed;fillColor=#CCCCCC;strokeColor=#23445d;fontFamily=Roboto;fontSource=https%3A%2F%2Ffonts.googleapis.com%2Fcss%3Ffamily%3DRoboto;" parent="186" vertex="1">
                    <mxGeometry x="380" y="640" width="120" height="80" as="geometry"/>
                </mxCell>
                <mxCell id="57" value="load" style="shape=step;perimeter=stepPerimeter;whiteSpace=wrap;html=1;fixedSize=1;fontSize=16;aspect=fixed;fillColor=#CCCCCC;strokeColor=#23445d;fontFamily=Roboto;fontSource=https%3A%2F%2Ffonts.googleapis.com%2Fcss%3Ffamily%3DRoboto;" parent="186" vertex="1">
                    <mxGeometry x="660" y="640" width="120" height="80" as="geometry"/>
                </mxCell>
                <mxCell id="95" value="transform" style="shape=step;perimeter=stepPerimeter;whiteSpace=wrap;html=1;fixedSize=1;fontSize=16;aspect=fixed;fillColor=#CCCCCC;strokeColor=#23445d;fontFamily=Roboto;fontSource=https%3A%2F%2Ffonts.googleapis.com%2Fcss%3Ffamily%3DRoboto;" parent="186" vertex="1">
                    <mxGeometry x="800" y="640" width="120" height="80" as="geometry"/>
                </mxCell>
                <mxCell id="96" value="promote" style="shape=step;perimeter=stepPerimeter;whiteSpace=wrap;html=1;fixedSize=1;fontSize=16;aspect=fixed;fillColor=#CCCCCC;strokeColor=#23445d;fontFamily=Roboto;fontSource=https%3A%2F%2Ffonts.googleapis.com%2Fcss%3Ffamily%3DRoboto;" parent="186" vertex="1">
                    <mxGeometry x="940" y="640" width="120" height="80" as="geometry"/>
                </mxCell>
                <mxCell id="144" value="" style="group;fontFamily=Roboto;fontSource=https%3A%2F%2Ffonts.googleapis.com%2Fcss%3Ffamily%3DRoboto;" parent="186" vertex="1" connectable="0">
                    <mxGeometry x="200" y="440" width="200" height="160" as="geometry"/>
                </mxCell>
                <mxCell id="139" value="local folder" style="rounded=1;whiteSpace=wrap;html=1;fontFamily=Roboto;fontSize=16;fontColor=default;align=center;strokeColor=#23445d;fillColor=#bac8d3;fillStyle=solid;verticalAlign=top;spacing=10;fontSource=https%3A%2F%2Ffonts.googleapis.com%2Fcss%3Ffamily%3DRoboto;" parent="144" vertex="1">
                    <mxGeometry width="200" height="160" as="geometry"/>
                </mxCell>
                <mxCell id="143" value="" style="sketch=0;pointerEvents=1;shadow=0;dashed=0;html=1;strokeColor=none;fillColor=#505050;labelPosition=center;verticalLabelPosition=bottom;verticalAlign=top;outlineConnect=0;align=center;shape=mxgraph.office.concepts.folder_open;fontSize=16;fontFamily=Roboto;fontSource=https%3A%2F%2Ffonts.googleapis.com%2Fcss%3Ffamily%3DRoboto;" parent="144" vertex="1">
                    <mxGeometry x="60" y="47.360000000000014" width="81.46" height="64.12" as="geometry"/>
                </mxCell>
                <mxCell id="148" style="edgeStyle=orthogonalEdgeStyle;shape=connector;rounded=1;html=1;entryX=0;entryY=0.5;entryDx=0;entryDy=0;labelBackgroundColor=default;strokeColor=#CCCCCC;fontFamily=Roboto;fontSize=16;fontColor=#000000;endArrow=classic;fontSource=https%3A%2F%2Ffonts.googleapis.com%2Fcss%3Ffamily%3DRoboto;" parent="186" source="35" target="139" edge="1">
                    <mxGeometry relative="1" as="geometry"/>
                </mxCell>
                <mxCell id="147" style="edgeStyle=orthogonalEdgeStyle;html=1;entryX=0;entryY=0.5;entryDx=0;entryDy=0;strokeColor=#CCCCCC;fontSize=16;fontColor=#000000;fontFamily=Roboto;fontSource=https%3A%2F%2Ffonts.googleapis.com%2Fcss%3Ffamily%3DRoboto;" parent="186" source="36" target="139" edge="1">
                    <mxGeometry relative="1" as="geometry"/>
                </mxCell>
                <mxCell id="108" style="edgeStyle=orthogonalEdgeStyle;jumpStyle=none;html=1;fontSize=16;fontColor=#000000;elbow=vertical;dashed=1;strokeColor=#CCCCCC;entryX=0;entryY=0.5;entryDx=0;entryDy=0;fontFamily=Roboto;fontSource=https%3A%2F%2Ffonts.googleapis.com%2Fcss%3Ffamily%3DRoboto;" parent="186" source="54" target="139" edge="1">
                    <mxGeometry relative="1" as="geometry">
                        <mxPoint x="160" y="570" as="targetPoint"/>
                    </mxGeometry>
                </mxCell>
                <mxCell id="149" style="edgeStyle=orthogonalEdgeStyle;shape=connector;rounded=1;html=1;labelBackgroundColor=default;strokeColor=#CCCCCC;fontFamily=Roboto;fontSize=16;fontColor=#000000;endArrow=classic;entryX=0;entryY=0.5;entryDx=0;entryDy=0;fontSource=https%3A%2F%2Ffonts.googleapis.com%2Fcss%3Ffamily%3DRoboto;" parent="186" source="139" target="152" edge="1">
                    <mxGeometry relative="1" as="geometry">
                        <mxPoint x="450" y="350.00000000000006" as="targetPoint"/>
                    </mxGeometry>
                </mxCell>
                <mxCell id="150" value="SFTP" style="ellipse;shape=cloud;whiteSpace=wrap;html=1;fontSize=16;fillColor=#bac8d3;strokeColor=#23445d;fontFamily=Roboto;fontSource=https%3A%2F%2Ffonts.googleapis.com%2Fcss%3Ffamily%3DRoboto;" parent="186" vertex="1">
                    <mxGeometry y="360.00000000000006" width="120" height="80" as="geometry"/>
                </mxCell>
                <mxCell id="153" value="" style="group;fontFamily=Roboto;fontSource=https%3A%2F%2Ffonts.googleapis.com%2Fcss%3Ffamily%3DRoboto;" parent="186" vertex="1" connectable="0">
                    <mxGeometry x="480" y="240" width="200" height="160" as="geometry"/>
                </mxCell>
                <mxCell id="152" value="local folder" style="rounded=1;whiteSpace=wrap;html=1;fontFamily=Roboto;fontSize=16;fontColor=default;align=center;strokeColor=#23445d;fillColor=#bac8d3;fillStyle=solid;verticalAlign=top;spacing=10;fontSource=https%3A%2F%2Ffonts.googleapis.com%2Fcss%3Ffamily%3DRoboto;" parent="153" vertex="1">
                    <mxGeometry width="200" height="160" as="geometry"/>
                </mxCell>
                <mxCell id="32" value="" style="sketch=0;outlineConnect=0;fontColor=#232F3E;gradientColor=none;fillColor=#3F8624;strokeColor=none;dashed=0;verticalLabelPosition=bottom;verticalAlign=top;align=center;html=1;fontSize=16;fontStyle=0;aspect=fixed;pointerEvents=1;shape=mxgraph.aws4.bucket_with_objects;fontFamily=Roboto;fontSource=https%3A%2F%2Ffonts.googleapis.com%2Fcss%3Ffamily%3DRoboto;" parent="153" vertex="1">
                    <mxGeometry x="63.41463414634143" y="60.000000000000114" width="73.17073170731707" height="76.09756097560975" as="geometry"/>
                </mxCell>
                <mxCell id="124" style="edgeStyle=orthogonalEdgeStyle;shape=connector;rounded=1;html=1;labelBackgroundColor=default;strokeColor=#CCCCCC;fontFamily=Roboto;fontSize=16;fontColor=#000000;endArrow=classic;entryX=0;entryY=0.5;entryDx=0;entryDy=0;fontSource=https%3A%2F%2Ffonts.googleapis.com%2Fcss%3Ffamily%3DRoboto;" parent="186" source="29" target="152" edge="1">
                    <mxGeometry relative="1" as="geometry">
                        <mxPoint x="478" y="265.00000000000006" as="targetPoint"/>
                    </mxGeometry>
                </mxCell>
                <mxCell id="123" style="edgeStyle=orthogonalEdgeStyle;shape=connector;rounded=1;html=1;labelBackgroundColor=default;strokeColor=#CCCCCC;fontFamily=Roboto;fontSize=16;fontColor=#000000;endArrow=classic;entryX=0;entryY=0.5;entryDx=0;entryDy=0;fontSource=https%3A%2F%2Ffonts.googleapis.com%2Fcss%3Ffamily%3DRoboto;" parent="186" source="37" target="152" edge="1">
                    <mxGeometry relative="1" as="geometry">
                        <mxPoint x="445" y="318.00000000000006" as="targetPoint"/>
                    </mxGeometry>
                </mxCell>
                <mxCell id="109" style="edgeStyle=orthogonalEdgeStyle;jumpStyle=none;html=1;dashed=1;fontSize=16;fontColor=#000000;elbow=vertical;strokeColor=#CCCCCC;entryX=0;entryY=0.5;entryDx=0;entryDy=0;fontFamily=Roboto;fontSource=https%3A%2F%2Ffonts.googleapis.com%2Fcss%3Ffamily%3DRoboto;" parent="186" source="56" target="152" edge="1">
                    <mxGeometry relative="1" as="geometry">
                        <mxPoint x="470" y="550" as="targetPoint"/>
                    </mxGeometry>
                </mxCell>
                <mxCell id="151" style="edgeStyle=orthogonalEdgeStyle;shape=connector;rounded=1;html=1;labelBackgroundColor=default;strokeColor=#CCCCCC;fontFamily=Roboto;fontSize=16;fontColor=#000000;endArrow=classic;entryX=0;entryY=0.5;entryDx=0;entryDy=0;fontSource=https%3A%2F%2Ffonts.googleapis.com%2Fcss%3Ffamily%3DRoboto;" parent="186" source="150" target="152" edge="1">
                    <mxGeometry relative="1" as="geometry">
                        <mxPoint x="470" y="350.00000000000006" as="targetPoint"/>
                    </mxGeometry>
                </mxCell>
                <mxCell id="160" value="" style="group;fontFamily=Roboto;fontSource=https%3A%2F%2Ffonts.googleapis.com%2Fcss%3Ffamily%3DRoboto;" parent="186" vertex="1" connectable="0">
                    <mxGeometry x="760" y="240" width="200" height="160" as="geometry"/>
                </mxCell>
                <mxCell id="155" value="Postgres&lt;br&gt;test / staging" style="rounded=1;whiteSpace=wrap;html=1;fontFamily=Roboto;fontSize=16;fontColor=default;align=center;strokeColor=#23445d;fillColor=#bac8d3;fillStyle=solid;verticalAlign=top;spacing=10;fontSource=https%3A%2F%2Ffonts.googleapis.com%2Fcss%3Ffamily%3DRoboto;" parent="160" vertex="1">
                    <mxGeometry width="200" height="160" as="geometry"/>
                </mxCell>
                <mxCell id="159" value="" style="html=1;verticalLabelPosition=bottom;align=center;labelBackgroundColor=#ffffff;verticalAlign=top;strokeWidth=2;strokeColor=#0080F0;shadow=0;dashed=0;shape=mxgraph.ios7.icons.data;fontSize=16;fontColor=#000000;fillColor=none;fontFamily=Roboto;fontSource=https%3A%2F%2Ffonts.googleapis.com%2Fcss%3Ffamily%3DRoboto;" parent="160" vertex="1">
                    <mxGeometry x="68.29268292682923" y="60.00000000000006" width="63.41463414634146" height="78.81" as="geometry"/>
                </mxCell>
                <mxCell id="118" style="shape=connector;rounded=1;jumpStyle=none;html=1;dashed=1;labelBackgroundColor=default;strokeColor=#CCCCCC;fontFamily=Roboto;fontSize=16;fontColor=#000000;endArrow=classic;edgeStyle=orthogonalEdgeStyle;entryX=0;entryY=0.5;entryDx=0;entryDy=0;fontSource=https%3A%2F%2Ffonts.googleapis.com%2Fcss%3Ffamily%3DRoboto;" parent="186" source="57" target="155" edge="1">
                    <mxGeometry relative="1" as="geometry">
                        <mxPoint x="720" y="376.00000000000006" as="targetPoint"/>
                    </mxGeometry>
                </mxCell>
                <mxCell id="111" style="edgeStyle=orthogonalEdgeStyle;jumpStyle=none;html=1;dashed=1;fontSize=16;fontColor=#000000;elbow=vertical;strokeColor=#CCCCCC;entryX=0.5;entryY=1;entryDx=0;entryDy=0;fontFamily=Roboto;fontSource=https%3A%2F%2Ffonts.googleapis.com%2Fcss%3Ffamily%3DRoboto;" parent="186" source="95" target="155" edge="1">
                    <mxGeometry relative="1" as="geometry">
                        <mxPoint x="858" y="445.00000000000006" as="targetPoint"/>
                    </mxGeometry>
                </mxCell>
                <mxCell id="102" style="edgeStyle=orthogonalEdgeStyle;html=1;fontSize=16;fontColor=#000000;strokeColor=#CCCCCC;exitX=1;exitY=0.5;exitDx=0;exitDy=0;entryX=0;entryY=0.5;entryDx=0;entryDy=0;fontFamily=Roboto;fontSource=https%3A%2F%2Ffonts.googleapis.com%2Fcss%3Ffamily%3DRoboto;" parent="186" source="152" target="155" edge="1">
                    <mxGeometry relative="1" as="geometry">
                        <mxPoint x="700" y="320.00000000000006" as="sourcePoint"/>
                        <mxPoint x="737" y="286.00000000000006" as="targetPoint"/>
                    </mxGeometry>
                </mxCell>
                <mxCell id="165" value="" style="group;fontFamily=Roboto;fontSource=https%3A%2F%2Ffonts.googleapis.com%2Fcss%3Ffamily%3DRoboto;" parent="186" vertex="1" connectable="0">
                    <mxGeometry x="1080" y="240" width="200" height="160" as="geometry"/>
                </mxCell>
                <mxCell id="166" value="Postgres&lt;br&gt;prod" style="rounded=1;whiteSpace=wrap;html=1;fontFamily=Roboto;fontSize=16;fontColor=default;align=center;strokeColor=#23445d;fillColor=#bac8d3;fillStyle=solid;verticalAlign=top;spacing=10;fontSource=https%3A%2F%2Ffonts.googleapis.com%2Fcss%3Ffamily%3DRoboto;" parent="165" vertex="1">
                    <mxGeometry width="200" height="160" as="geometry"/>
                </mxCell>
                <mxCell id="167" value="" style="html=1;verticalLabelPosition=bottom;align=center;labelBackgroundColor=#ffffff;verticalAlign=top;strokeWidth=2;strokeColor=#0080F0;shadow=0;dashed=0;shape=mxgraph.ios7.icons.data;fontSize=16;fontColor=#000000;fillColor=none;fontFamily=Roboto;fontSource=https%3A%2F%2Ffonts.googleapis.com%2Fcss%3Ffamily%3DRoboto;" parent="165" vertex="1">
                    <mxGeometry x="68.29268292682923" y="60.00000000000006" width="63.41463414634146" height="78.81" as="geometry"/>
                </mxCell>
                <mxCell id="117" style="edgeStyle=orthogonalEdgeStyle;shape=connector;rounded=1;jumpStyle=none;html=1;dashed=1;labelBackgroundColor=default;strokeColor=#CCCCCC;fontFamily=Roboto;fontSize=16;fontColor=#000000;endArrow=classic;elbow=vertical;entryX=0;entryY=0.5;entryDx=0;entryDy=0;fontSource=https%3A%2F%2Ffonts.googleapis.com%2Fcss%3Ffamily%3DRoboto;" parent="186" source="96" target="166" edge="1">
                    <mxGeometry relative="1" as="geometry">
                        <mxPoint x="1008" y="320.00000000000006" as="targetPoint"/>
                        <Array as="points">
                            <mxPoint x="1010" y="320.00000000000006"/>
                        </Array>
                    </mxGeometry>
                </mxCell>
                <mxCell id="168" style="edgeStyle=orthogonalEdgeStyle;shape=connector;rounded=1;html=1;entryX=0;entryY=0.5;entryDx=0;entryDy=0;labelBackgroundColor=default;strokeColor=#CCCCCC;fontFamily=Roboto;fontSize=16;fontColor=#000000;endArrow=classic;fontSource=https%3A%2F%2Ffonts.googleapis.com%2Fcss%3Ffamily%3DRoboto;" parent="186" source="155" target="166" edge="1">
                    <mxGeometry relative="1" as="geometry"/>
                </mxCell>
                <mxCell id="172" value="" style="group;fontFamily=Roboto;fontSource=https%3A%2F%2Ffonts.googleapis.com%2Fcss%3Ffamily%3DRoboto;" parent="186" vertex="1" connectable="0">
                    <mxGeometry x="1080" width="200" height="160" as="geometry"/>
                </mxCell>
                <mxCell id="173" value="S3&lt;br&gt;publishing" style="rounded=1;whiteSpace=wrap;html=1;fontFamily=Roboto;fontSize=16;fontColor=default;align=center;strokeColor=#23445d;fillColor=#bac8d3;fillStyle=solid;verticalAlign=top;spacing=10;fontSource=https%3A%2F%2Ffonts.googleapis.com%2Fcss%3Ffamily%3DRoboto;" parent="172" vertex="1">
                    <mxGeometry width="200" height="160" as="geometry"/>
                </mxCell>
                <mxCell id="174" value="" style="sketch=0;outlineConnect=0;fontColor=#232F3E;gradientColor=none;fillColor=#3F8624;strokeColor=none;dashed=0;verticalLabelPosition=bottom;verticalAlign=top;align=center;html=1;fontSize=16;fontStyle=0;aspect=fixed;pointerEvents=1;shape=mxgraph.aws4.bucket_with_objects;fontFamily=Roboto;fontSource=https%3A%2F%2Ffonts.googleapis.com%2Fcss%3Ffamily%3DRoboto;" parent="172" vertex="1">
                    <mxGeometry x="63.41463414634143" y="60.000000000000114" width="73.17073170731707" height="76.09756097560975" as="geometry"/>
                </mxCell>
                <mxCell id="175" value="" style="group;fontFamily=Roboto;fontSource=https%3A%2F%2Ffonts.googleapis.com%2Fcss%3Ffamily%3DRoboto;" parent="186" vertex="1" connectable="0">
                    <mxGeometry x="760" width="200" height="160" as="geometry"/>
                </mxCell>
                <mxCell id="176" value="S3&lt;br&gt;test / staging" style="rounded=1;whiteSpace=wrap;html=1;fontFamily=Roboto;fontSize=16;fontColor=default;align=center;strokeColor=#23445d;fillColor=#bac8d3;fillStyle=solid;verticalAlign=top;spacing=10;fontSource=https%3A%2F%2Ffonts.googleapis.com%2Fcss%3Ffamily%3DRoboto;" parent="175" vertex="1">
                    <mxGeometry width="200" height="160" as="geometry"/>
                </mxCell>
                <mxCell id="177" value="" style="sketch=0;outlineConnect=0;fontColor=#232F3E;gradientColor=none;fillColor=#3F8624;strokeColor=none;dashed=0;verticalLabelPosition=bottom;verticalAlign=top;align=center;html=1;fontSize=16;fontStyle=0;aspect=fixed;pointerEvents=1;shape=mxgraph.aws4.bucket_with_objects;fontFamily=Roboto;fontSource=https%3A%2F%2Ffonts.googleapis.com%2Fcss%3Ffamily%3DRoboto;" parent="175" vertex="1">
                    <mxGeometry x="63.41463414634143" y="60.000000000000114" width="73.17073170731707" height="76.09756097560975" as="geometry"/>
                </mxCell>
                <mxCell id="182" style="edgeStyle=orthogonalEdgeStyle;shape=connector;rounded=1;jumpStyle=none;html=1;entryX=0.5;entryY=1;entryDx=0;entryDy=0;dashed=1;labelBackgroundColor=default;strokeColor=#CCCCCC;fontFamily=Roboto;fontSource=https%3A%2F%2Ffonts.googleapis.com%2Fcss%3Ffamily%3DRoboto;fontSize=16;fontColor=#000000;endArrow=classic;elbow=vertical;" parent="186" source="181" target="173" edge="1">
                    <mxGeometry relative="1" as="geometry">
                        <Array as="points">
                            <mxPoint x="1180" y="200.00000000000006"/>
                        </Array>
                    </mxGeometry>
                </mxCell>
                <mxCell id="183" style="edgeStyle=orthogonalEdgeStyle;shape=connector;rounded=1;jumpStyle=none;html=1;entryX=0.5;entryY=1;entryDx=0;entryDy=0;dashed=1;labelBackgroundColor=default;strokeColor=#CCCCCC;fontFamily=Roboto;fontSource=https%3A%2F%2Ffonts.googleapis.com%2Fcss%3Ffamily%3DRoboto;fontSize=16;fontColor=#000000;endArrow=classic;elbow=vertical;" parent="186" source="181" target="176" edge="1">
                    <mxGeometry relative="1" as="geometry">
                        <Array as="points">
                            <mxPoint x="860" y="200.00000000000006"/>
                        </Array>
                    </mxGeometry>
                </mxCell>
                <mxCell id="181" value="export" style="shape=step;perimeter=stepPerimeter;whiteSpace=wrap;html=1;fixedSize=1;fontSize=16;aspect=fixed;fillColor=#CCCCCC;strokeColor=#23445d;fontFamily=Roboto;fontSource=https%3A%2F%2Ffonts.googleapis.com%2Fcss%3Ffamily%3DRoboto;" parent="186" vertex="1">
                    <mxGeometry x="960" y="160.00000000000006" width="120" height="80" as="geometry"/>
                </mxCell>
                <mxCell id="184" style="edgeStyle=orthogonalEdgeStyle;shape=connector;rounded=1;html=1;entryX=0.5;entryY=1;entryDx=0;entryDy=0;labelBackgroundColor=default;strokeColor=#CCCCCC;fontFamily=Roboto;fontSource=https%3A%2F%2Ffonts.googleapis.com%2Fcss%3Ffamily%3DRoboto;fontSize=16;fontColor=#000000;endArrow=classic;" parent="186" source="155" target="176" edge="1">
                    <mxGeometry relative="1" as="geometry"/>
                </mxCell>
                <mxCell id="185" style="edgeStyle=orthogonalEdgeStyle;shape=connector;rounded=1;html=1;entryX=0.5;entryY=1;entryDx=0;entryDy=0;labelBackgroundColor=default;strokeColor=#CCCCCC;fontFamily=Roboto;fontSource=https%3A%2F%2Ffonts.googleapis.com%2Fcss%3Ffamily%3DRoboto;fontSize=16;fontColor=#000000;endArrow=classic;" parent="186" source="166" target="173" edge="1">
                    <mxGeometry relative="1" as="geometry"/>
                </mxCell>
            </root>
        </mxGraphModel>
    </diagram>
</mxfile>